<svg width="43" height="478" viewBox="0 0 43 478" fill="none" xmlns="http://www.w3.org/2000/svg">
<path d="M21.4861 22.0762L21.0382 456" stroke="#546B7A" stroke-width="3" stroke-linecap="round"/>
<path d="M21.486 42.1511C32.5307 42.1511 41.472 33.1564 41.472 22.0762C41.472 10.9959 32.5307 2.00122 21.486 2.00122C10.4413 2.00122 1.5 10.9959 1.5 22.0762C1.5 33.1564 10.4413 42.1511 21.486 42.1511Z" fill="white" stroke="#546B7A" stroke-width="3"/>
<path d="M33.8101 22.0762C33.8101 15.2371 28.2925 9.69289 21.4861 9.69289C14.6797 9.69289 9.16211 15.2371 9.16211 22.0762C9.16211 28.9153 14.6797 34.4595 21.4861 34.4595C28.2925 34.4595 33.8101 28.9153 33.8101 22.0762Z" fill="#546B7A"/>
<path d="M21.486 298.269C32.6907 298.269 41.472 288.07 41.472 275.885C41.472 263.699 32.6907 253.5 21.486 253.5C10.2813 253.5 1.5 263.699 1.5 275.885C1.5 288.07 10.2813 298.269 21.486 298.269Z" fill="white" stroke="#546B7A" stroke-width="3"/>
<path d="M33.8101 275.885C33.8101 268.195 28.2925 261.961 21.4861 261.961C14.6797 261.961 9.16211 268.195 9.16211 275.885C9.16211 283.574 14.6797 289.808 21.4861 289.808C28.2925 289.808 33.8101 283.574 33.8101 275.885Z" fill="#546B7A"/>
<path d="M21.486 475.65C32.5307 475.65 41.472 466.655 41.472 455.575C41.472 444.495 32.5307 435.5 21.486 435.5C10.4413 435.5 1.5 444.495 1.5 455.575C1.5 466.655 10.4413 475.65 21.486 475.65Z" fill="white" stroke="#546B7A" stroke-width="3"/>
<path d="M33.8101 455.575C33.8101 448.736 28.2925 443.191 21.4861 443.191C14.6797 443.191 9.16211 448.736 9.16211 455.575C9.16211 462.414 14.6797 467.958 21.4861 467.958C28.2925 467.958 33.8101 462.414 33.8101 455.575Z" fill="#546B7A"/>
</svg>
